<mxfile host="65bd71144e">
    <diagram id="oj01yfjUfmiqW-biaFMn" name="Page-1">
        <mxGraphModel dx="1284" dy="1084" grid="1" gridSize="10" guides="1" tooltips="1" connect="1" arrows="1" fold="1" page="1" pageScale="1" pageWidth="827" pageHeight="1169" background="#ffffff" math="0" shadow="0">
            <root>
                <mxCell id="0"/>
                <mxCell id="1" parent="0"/>
                <mxCell id="6" style="edgeStyle=none;html=1;exitX=1;exitY=0.5;exitDx=0;exitDy=0;entryX=0;entryY=0.5;entryDx=0;entryDy=0;fontSize=24;shadow=0;" parent="1" source="2" target="5" edge="1">
                    <mxGeometry relative="1" as="geometry"/>
                </mxCell>
                <mxCell id="2" value="&lt;font style=&quot;font-size: 30px;&quot;&gt;ROAD pix2pix&lt;/font&gt;" style="rounded=1;whiteSpace=wrap;html=1;fillColor=#d5e8d4;strokeColor=#82b366;shadow=0;" parent="1" vertex="1">
                    <mxGeometry x="320" y="40" width="280" height="200" as="geometry"/>
                </mxCell>
                <mxCell id="4" style="edgeStyle=none;html=1;exitX=1;exitY=0.5;exitDx=0;exitDy=0;entryX=0;entryY=0.5;entryDx=0;entryDy=0;fontSize=24;shadow=0;" parent="1" source="3" target="2" edge="1">
                    <mxGeometry relative="1" as="geometry"/>
                </mxCell>
                <mxCell id="3" value="DomainA&lt;br&gt;Image&lt;br&gt;(ROAD)" style="whiteSpace=wrap;html=1;aspect=fixed;fontSize=24;fillColor=#eeeeee;strokeColor=#36393d;shadow=0;" parent="1" vertex="1">
                    <mxGeometry x="40" y="40" width="200" height="200" as="geometry"/>
                </mxCell>
                <mxCell id="9" style="edgeStyle=orthogonalEdgeStyle;html=1;exitX=1;exitY=0.5;exitDx=0;exitDy=0;entryX=1;entryY=0.5;entryDx=0;entryDy=0;fontSize=24;startArrow=none;startFill=0;shadow=0;endArrow=none;endFill=0;" parent="1" source="5" target="7" edge="1">
                    <mxGeometry relative="1" as="geometry">
                        <Array as="points">
                            <mxPoint x="920" y="140"/>
                            <mxPoint x="920" y="460"/>
                        </Array>
                    </mxGeometry>
                </mxCell>
                <mxCell id="5" value="Generated&lt;br&gt;DomainB&lt;br&gt;Image&lt;br&gt;(ROAD)" style="whiteSpace=wrap;html=1;aspect=fixed;fontSize=24;fillColor=#fff2cc;strokeColor=#d6b656;shadow=0;" parent="1" vertex="1">
                    <mxGeometry x="680" y="40" width="200" height="200" as="geometry"/>
                </mxCell>
                <mxCell id="7" value="Real&lt;br&gt;DomainB&lt;br&gt;Image&lt;br&gt;(ROAD)" style="whiteSpace=wrap;html=1;aspect=fixed;fontSize=24;fillColor=#bac8d3;strokeColor=#23445d;shadow=0;" parent="1" vertex="1">
                    <mxGeometry x="680" y="360" width="200" height="200" as="geometry"/>
                </mxCell>
                <mxCell id="18" style="edgeStyle=orthogonalEdgeStyle;html=1;exitX=0;exitY=0.5;exitDx=0;exitDy=0;shadow=0;fontSize=24;startArrow=classic;startFill=1;endArrow=none;endFill=0;" parent="1" source="16" edge="1">
                    <mxGeometry relative="1" as="geometry">
                        <mxPoint x="920" y="299.90909090909076" as="targetPoint"/>
                    </mxGeometry>
                </mxCell>
                <mxCell id="16" value="Discriminator" style="rounded=1;whiteSpace=wrap;html=1;shadow=0;fontSize=24;fillColor=#f8cecc;strokeColor=#b85450;align=center;" parent="1" vertex="1">
                    <mxGeometry x="960" y="240" width="160" height="120" as="geometry"/>
                </mxCell>
            </root>
        </mxGraphModel>
    </diagram>
</mxfile>